<svg width="264" height="40" viewBox="0 0 264 40" fill="none" xmlns="http://www.w3.org/2000/svg">
<path d="M0.019722 26.3295C0.0161218 26.3295 0.0125093 26.3295 0.00710902 26.3295C0.00710902 26.5887 0.00710902 26.8461 0.00710902 27.1052C0.00530892 30.2547 -0.00369683 33.4041 0.00170346 36.5536C0.00530365 38.1193 1.12138 39.4439 2.67486 39.5087C4.83498 39.6005 7.0023 39.5447 9.16782 39.5447C10.7429 39.5447 12.1164 38.1175 12.0732 36.3214C12.0246 34.3058 12.102 32.2883 12.12 30.2709C12.1452 27.5281 12.1686 24.7854 12.1938 22.0427C12.1992 21.5406 12.2694 21.4452 12.7464 21.3174C13.8444 21.0222 14.9479 20.9682 16.0694 21.2058C18.0981 21.6377 19.5814 23.2017 19.7992 25.2623C19.9072 26.2864 19.9144 27.323 19.9288 28.356C19.9684 31.0609 19.99 33.7677 20.017 36.4744C20.035 38.2687 21.3311 39.5717 23.124 39.5807C25.0555 39.5897 26.9888 39.5933 28.9203 39.5897C30.7456 39.5879 32.0488 38.3083 32.0524 36.4834C32.065 30.9224 32.0632 25.3613 32.0668 19.8003C32.0668 19.7139 32.0686 19.6275 32.0596 19.5429C32.0092 18.958 31.7806 18.4577 31.264 18.1607C30.9058 17.9556 30.5151 17.7756 30.1155 17.6802C28.544 17.3059 26.9455 17.2339 25.3507 17.4787C24.1248 17.6658 22.9151 17.9628 21.6983 18.2093C20.098 18.5315 18.4869 18.6682 16.8578 18.5027C14.7643 18.2903 12.9462 17.4031 11.2433 16.2243C10.4351 15.6646 9.61601 15.1175 8.77717 14.6027C7.75471 13.9765 6.60988 13.7695 5.42722 13.7029C4.15815 13.6327 2.89448 13.6003 1.64521 13.8882C0.671362 14.1114 0.161915 14.6783 0.0503096 15.6645C0.0269083 15.8715 0.0161183 16.0821 0.0161183 16.2909C0.0197185 19.6365 0.019722 22.9821 0.019722 26.3295ZM6.04644 12.1246C9.39642 12.13 12.12 9.42682 12.129 6.08839C12.138 2.73736 9.43783 0.0108304 6.10045 3.22174e-05C2.72887 -0.0107659 0.00350355 2.69418 0.00170346 6.0542C-0.00189673 9.40343 2.70186 12.1174 6.04644 12.1246ZM31.921 9.17847C31.9264 5.83284 29.2209 3.1099 25.8817 3.0991C22.5317 3.0883 19.8046 5.78784 19.7938 9.12627C19.783 12.4971 22.4885 15.2236 25.8475 15.2254C29.1921 15.2272 31.9156 12.5169 31.921 9.17847Z" fill="white"/>
<path d="M68.5907 39.4727H61.664V27.4435H49.5925V39.4727H42.6658V10.1089H49.5925V21.3282H61.664V10.1089H68.5907V39.4727Z" fill="white"/>
<path d="M81.8809 21.5315C79.7334 21.5315 78.2339 22.6257 77.9927 24.7314H71.7535C72.038 20.6407 76.0071 16.9945 82.4479 16.9945C88.687 16.9945 92.2926 19.5051 92.1702 26.1477L92.0892 30.8863C92.0496 33.7209 92.1702 37.61 92.5752 39.4727H86.0121L85.9311 36.8397C84.311 39.1487 81.7189 39.9982 78.5993 39.9982C74.4663 39.9982 71.0641 37.5686 71.0641 33.5985C71.0641 28.2534 77.0998 26.4699 85.5675 25.8634V25.0121C85.5675 22.462 84.2696 21.5315 81.8809 21.5315ZM81.0294 35.463C83.7026 35.463 85.7277 34.3292 85.7277 30.3194V29.7921C81.0691 30.1971 77.9495 30.8036 77.9495 33.1126C77.9513 34.5325 79.2869 35.463 81.0294 35.463Z" fill="white"/>
<path d="M109.635 17.1979C115.226 17.1979 116.968 20.4787 116.968 26.3925V39.4745H110.285V28.0536C110.285 24.9348 110.162 22.3828 106.922 22.3828C104.087 22.3828 102.872 24.2869 102.872 28.2966V39.4745H96.188V17.6856H102.872V20.5615C103.842 18.94 106.233 17.1979 109.635 17.1979Z" fill="white"/>
<path d="M142.836 39.4727H136.152V36.5572C134.733 38.9472 131.859 40 129.468 40C123.877 40 119.868 35.7078 119.868 28.5792C119.868 21.4506 123.879 17.1979 129.468 17.1979C131.859 17.1979 134.733 18.2507 136.152 20.6407V10.1107H142.836V39.4727ZM131.655 34.8151C134.289 34.8151 136.476 33.073 136.476 28.5774C136.476 24.0817 134.289 22.381 131.655 22.381C128.982 22.381 126.793 24.5281 126.793 28.5774C126.795 32.6285 128.982 34.8151 131.655 34.8151Z" fill="white"/>
<path d="M156.338 21.9761C154.07 21.9761 152.855 22.5826 152.855 23.5958C152.855 24.609 153.625 25.1759 155.53 25.5395L159.58 26.2683C164.847 27.2402 167.319 28.7789 167.319 32.6267C167.319 37.5272 162.822 39.9982 156.786 39.9982C151.033 39.9982 146.861 37.4876 146.092 32.3837H152.29C152.857 34.4893 154.558 35.1372 156.867 35.1372C159.217 35.1372 160.918 34.4893 160.918 33.1936C160.918 32.2217 160.027 31.6134 157.515 31.1689L153.627 30.521C149.415 29.8317 146.538 27.6865 146.538 23.8388C146.538 19.4637 151.116 17.1151 156.504 17.1151C161.486 17.1151 165.983 19.1398 166.835 24.0817H160.595C160.187 22.462 158.444 21.9761 156.338 21.9761Z" fill="white"/>
<path d="M191.28 26.3907V39.4727H184.596V28.0518C184.596 24.933 184.515 22.381 181.275 22.381C178.44 22.381 177.183 24.2851 177.183 28.2948V39.4727H170.5V10.1089H177.183V20.5579C178.155 18.9382 180.546 17.1961 183.948 17.1961C189.537 17.1979 191.28 20.4787 191.28 26.3907Z" fill="white"/>
<path d="M205.036 21.5315C202.889 21.5315 201.391 22.6257 201.148 24.7314H194.909C195.191 20.6407 199.163 16.9945 205.603 16.9945C211.842 16.9945 215.448 19.5051 215.326 26.1477L215.245 30.8863C215.203 33.7209 215.326 37.61 215.731 39.4727H209.169L209.088 36.8397C207.468 39.1487 204.876 39.9982 201.756 39.9982C197.623 39.9982 194.221 37.5686 194.221 33.5985C194.221 28.2534 200.257 26.4699 208.725 25.8634V25.0121C208.723 22.462 207.427 21.5315 205.036 21.5315ZM204.185 35.463C206.86 35.463 208.883 34.3292 208.883 30.3194V29.7921C204.226 30.1971 201.105 30.8036 201.105 33.1126C201.107 34.5325 202.444 35.463 204.185 35.463Z" fill="white"/>
<path d="M226.056 25.9858L233.39 17.6838H241.288L233.51 26.0272L241.935 39.4727H234.117L228.972 30.8864L226.056 34.0052V39.4727H219.372V10.1089H226.056V25.9858Z" fill="white"/>
<path d="M253.032 40C245.943 40 241.081 35.6663 241.081 28.4567C241.081 21.4901 246.388 17.0359 252.748 17.0359C259.959 17.0359 264.414 22.5447 263.97 30.2798H247.805C248.008 33.3573 250.397 34.815 252.829 34.815C255.34 34.815 256.962 33.9242 257.73 32.6284H263.887C261.943 37.7719 257.406 40 253.032 40ZM257.325 26.2287C257.244 23.5148 255.259 22.138 252.748 22.138C250.399 22.138 248.251 23.3528 247.887 26.2287H257.325Z" fill="white"/>
</svg>
